<?xml version="1.0" standalone="no"?>
<!DOCTYPE svg PUBLIC "-//W3C//DTD SVG 20010904//EN"
 "http://www.w3.org/TR/2001/REC-SVG-20010904/DTD/svg10.dtd">
<svg version="1.0" xmlns="http://www.w3.org/2000/svg"
 width="1080.000000pt" height="1080.000000pt" viewBox="0 0 1080.000000 1080.000000"
 preserveAspectRatio="xMidYMid meet">

<g transform="translate(0.000000,1080.000000) scale(0.100000,-0.100000)"
fill="#000000" stroke="none">
<path d="M2700 5810 l0 -2700 2700 0 2700 0 0 2700 0 2700 -2700 0 -2700 0 0
-2700z m3211 1806 c120 -19 195 -44 329 -109 131 -64 282 -165 382 -255 l77
-70 -92 -104 c-51 -56 -161 -182 -246 -278 -85 -96 -157 -179 -162 -184 -4 -5
-29 10 -55 33 -139 122 -261 170 -451 178 -112 5 -129 3 -205 -20 -134 -42
-240 -119 -326 -235 -91 -124 -149 -270 -183 -465 -43 -243 -22 -610 47 -816
87 -258 256 -427 474 -472 85 -18 292 -18 345 0 91 30 85 10 85 281 l0 240
-215 0 -215 0 0 380 0 380 630 0 630 0 0 -836 0 -837 -22 -20 c-233 -207 -633
-375 -964 -406 -103 -9 -342 -1 -433 15 -499 88 -883 347 -1103 745 -170 308
-240 608 -240 1029 -1 209 12 342 48 510 145 677 564 1130 1194 1289 192 49
459 59 671 27z"/>
</g>
</svg>
